HIERARCHY
ROOT Hips
{
	OFFSET 0.000000 0.000000 0.000000
	CHANNELS 6 Xposition Yposition Zposition Xrotation Yrotation Zrotation
	JOINT LeftUpLeg_virtual
	{
		OFFSET 0.000000 0.000000 0.000000
		CHANNELS 3 Xrotation Yrotation Zrotation
		JOINT LeftUpLeg
		{
			OFFSET 13.026900 -6.336304 -1.092800
			CHANNELS 3 Xrotation Yrotation Zrotation
			JOINT LeftLeg
			{
				OFFSET 0.524474 -46.096886 9.782700
				CHANNELS 3 Xrotation Yrotation Zrotation
				JOINT LeftFoot
				{
					OFFSET -0.524474 -53.427422 -12.948200
					CHANNELS 3 Xrotation Yrotation Zrotation
					JOINT LeftToeBase
					{
						OFFSET 0.192200 -14.009700 16.364100
						CHANNELS 3 Xrotation Yrotation Zrotation
						JOINT LeftToe_End
						{
							OFFSET -1.784700 -0.561700 9.474800
							CHANNELS 3 Xrotation Yrotation Zrotation
							End Site
							{
								OFFSET 0 0 0
							}
						}
					}
				}
			}
		}
	}
	JOINT RightUpLeg_virtual
	{
		OFFSET 0.000000 0.000000 0.000000
		CHANNELS 3 Xrotation Yrotation Zrotation
		JOINT RightUpLeg
		{
			OFFSET -12.883000 -6.336304 -1.092800
			CHANNELS 3 Xrotation Yrotation Zrotation
			JOINT RightLeg
			{
				OFFSET -0.524587 -46.096825 9.782800
				CHANNELS 3 Xrotation Yrotation Zrotation
				JOINT RightFoot
				{
					OFFSET 0.524587 -53.427383 -12.948300
					CHANNELS 3 Xrotation Yrotation Zrotation
					JOINT RightToeBase
					{
						OFFSET -0.192200 -14.009700 16.364100
						CHANNELS 3 Xrotation Yrotation Zrotation
						JOINT RightToe_End
						{
							OFFSET 1.784700 -0.561700 9.474800
							CHANNELS 3 Xrotation Yrotation Zrotation
							End Site
							{
								OFFSET 0 0 0
							}
						}
					}
				}
			}
		}
	}
	JOINT Spine_virtual
	{
		OFFSET 0.000000 0.000000 0.000000
		CHANNELS 3 Xrotation Yrotation Zrotation
		JOINT Spine
		{
			OFFSET 0.072000 7.257294 -0.789700
			CHANNELS 3 Xrotation Yrotation Zrotation
			JOINT Spine1
			{
				OFFSET 0.000000 12.508769 -0.658067
				CHANNELS 3 Xrotation Yrotation Zrotation
				JOINT Spine1_split
				{
					OFFSET 0.000000 12.508769 -0.658067
					CHANNELS 3 Xrotation Yrotation Zrotation
					JOINT Spine2
					{
						OFFSET 0.000000 12.508769 -0.658067
						CHANNELS 3 Xrotation Yrotation Zrotation
						JOINT Neck_virtual
						{
							OFFSET 0.000000 0.000000 0.000000
							CHANNELS 3 Xrotation Yrotation Zrotation
							JOINT Neck
							{
								OFFSET 0.000000 14.033295 7.520400
								CHANNELS 3 Xrotation Yrotation Zrotation
								JOINT Head
								{
									OFFSET 0.000000 8.198502 5.703100
									CHANNELS 3 Xrotation Yrotation Zrotation
									JOINT HeadTop_End
									{
										OFFSET 0.000000 17.760803 13.332701
										CHANNELS 3 Xrotation Yrotation Zrotation
										End Site
										{
											OFFSET 0 0 0
										}
									}
								}
							}
						}
						JOINT LeftShoulder_virtual
						{
							OFFSET 0.000000 0.000000 0.000000
							CHANNELS 3 Xrotation Yrotation Zrotation
							JOINT LeftShoulder
							{
								OFFSET 6.292450 5.785301 -0.669000
								CHANNELS 3 Xrotation Yrotation Zrotation
								JOINT LeftShoulder_split
								{
									OFFSET 6.292450 5.785301 -0.669000
									CHANNELS 3 Xrotation Yrotation Zrotation
									JOINT LeftArm
									{
										OFFSET 13.907140 -6.093903 1.965100
										CHANNELS 3 Xrotation Yrotation Zrotation
										JOINT LeftForeArm
										{
											OFFSET 34.140198 0.000000 0.000000
											CHANNELS 3 Xrotation Yrotation Zrotation
											JOINT LeftHand
											{
												OFFSET 40.960209 0.000000 0.000000
												CHANNELS 3 Xrotation Yrotation Zrotation
												End Site
												{
													OFFSET 0 0 0
												}
											}
										}
									}
								}
							}
						}
						JOINT RightShoulder_virtual
						{
							OFFSET 0.000000 0.000000 0.000000
							CHANNELS 3 Xrotation Yrotation Zrotation
							JOINT RightShoulder
							{
								OFFSET -6.292450 5.785301 -0.669000
								CHANNELS 3 Xrotation Yrotation Zrotation
								JOINT RightShoulder_split
								{
									OFFSET -6.292450 5.785301 -0.669000
									CHANNELS 3 Xrotation Yrotation Zrotation
									JOINT RightArm
									{
										OFFSET -13.907140 -6.093903 1.965100
										CHANNELS 3 Xrotation Yrotation Zrotation
										JOINT RightForeArm
										{
											OFFSET -34.140198 0.000000 0.000000
											CHANNELS 3 Xrotation Yrotation Zrotation
											JOINT RightHand
											{
												OFFSET -40.960209 0.000000 0.000000
												CHANNELS 3 Xrotation Yrotation Zrotation
												End Site
												{
													OFFSET 0 0 0
												}
											}
										}
									}
								}
							}
						}
					}
				}
			}
		}
	}
}
MOTION
Frames: 4
Frame Time: 0.03333333
-7.875327 104.312576 5.270748 0.000000 0.000000 0.000000 -21.617397 -67.346738 -21.764816 -30.862609 0.487719 26.044785 36.277785 9.759810 -5.828045 0.701420 2.520379 -10.720831 0.934144 1.555561 -0.076350 0.000000 0.000000 0.000000 -21.743100 -61.061502 -18.772188 -22.002032 -22.451583 -20.620092 38.889704 -11.144396 1.935326 -10.593640 -3.534460 13.176924 -6.169290 -1.921102 4.294345 0.000000 0.000000 0.000000 -30.140334 -63.347191 -26.088765 5.760185 13.006087 4.216390 2.980072 2.491007 1.537189 0.288280 3.964418 0.429694 0.000000 0.000000 0.000000 13.979508 5.568360 -2.074067 11.925392 7.441124 -2.533503 25.253168 43.583369 -13.549597 0.000000 0.000000 0.000000 14.175403 4.853803 -1.778828 9.834852 -11.292925 -6.398593 -1.499369 -14.443287 -4.166266 2.922838 -12.368311 -36.693398 -86.460776 7.980968 -79.590173 0.000000 0.000000 0.000000 14.314860 6.214960 -0.051316 3.595948 6.289980 -10.614318 -1.563642 -2.960314 -11.782023 -10.855489 31.855067 41.336438 -65.824138 74.201003 54.442543 0.000000 0.000000 0.000000 
-7.906998 104.444641 7.302647 0.000000 0.000000 0.000000 -21.398100 -67.416774 -21.579493 -30.806738 1.524092 26.436027 36.764060 9.291143 -5.905353 0.218331 2.391337 -10.650113 0.583422 1.463059 0.234082 0.000000 0.000000 0.000000 -21.155654 -61.330844 -18.304560 -22.458290 -21.817993 -20.346413 39.546905 -11.036160 1.565550 -10.337360 -4.331190 12.801944 -5.431540 -2.020300 4.652196 0.000000 0.000000 0.000000 -28.332666 -63.346077 -24.784950 5.788073 12.844330 4.190248 3.442826 2.734317 1.636124 0.008391 5.143619 0.293408 0.000000 0.000000 0.000000 14.053910 5.904947 -2.072734 11.619736 7.382378 -2.320978 24.619682 44.143581 -14.033193 0.000000 0.000000 0.000000 14.549657 5.206113 -1.875940 10.063631 -11.089496 -5.761750 -3.079587 -12.162369 -5.496094 1.464446 -10.585789 -37.690090 -86.351097 8.591395 -79.269454 0.000000 0.000000 0.000000 15.023836 6.645404 -0.124370 3.372062 8.191708 -11.010650 -2.157434 -1.657115 -11.516176 -10.596630 33.266713 41.994411 -68.183415 74.531707 56.670332 0.000000 0.000000 0.000000 
-7.560903 104.428116 9.616127 0.000000 0.000000 0.000000 -20.374548 -66.307941 -20.394718 -31.889347 3.066625 26.366371 38.144438 8.364631 -6.100834 -1.405145 2.540678 -9.821202 0.054485 1.359756 0.667789 0.000000 0.000000 0.000000 -19.643479 -60.526391 -16.852057 -23.311460 -20.753567 -19.570789 40.591384 -10.125724 0.896404 -9.795821 -5.308049 12.871707 -5.027376 -1.984955 4.656853 0.000000 0.000000 0.000000 -25.319585 -63.088258 -22.189270 6.068999 12.683731 4.566326 3.508044 3.813027 1.552694 -0.321507 5.942470 0.343552 0.000000 0.000000 0.000000 14.120589 7.001021 -2.243874 10.396277 7.675213 -2.563670 23.362913 45.070390 -15.220641 0.000000 0.000000 0.000000 14.486643 6.441210 -2.122486 10.166727 -11.048416 -4.712110 -3.844805 -10.201304 -6.419722 -1.587499 -7.876719 -39.665446 -86.935549 8.832515 -79.714195 0.000000 0.000000 0.000000 15.653723 7.877600 -0.470322 3.443540 10.996581 -10.915260 -2.631666 -1.697606 -12.460377 -9.000518 35.173282 41.938724 -70.237588 74.505110 58.558900 0.000000 0.000000 0.000000 
-7.064506 104.347328 11.685150 0.000000 0.000000 0.000000 -18.653754 -64.394313 -18.425192 -33.656584 4.692269 25.627517 40.044118 7.011091 -6.187146 -3.510579 2.829694 -8.578543 -0.543495 1.239982 1.083649 0.000000 0.000000 0.000000 -17.739499 -59.056534 -14.947323 -24.680491 -19.299912 -18.395212 41.925945 -8.461382 -0.025008 -8.972525 -6.213128 13.481051 -5.183806 -1.830136 4.329328 0.000000 0.000000 0.000000 -21.535639 -62.531441 -18.785795 6.372650 12.474365 5.232711 3.199861 5.416420 1.393073 -0.464943 5.828333 0.254788 0.000000 0.000000 0.000000 14.226930 8.590414 -2.497072 8.504185 8.373062 -2.965263 21.875318 46.071344 -16.935620 0.000000 0.000000 0.000000 14.210950 8.233796 -2.487122 10.195856 -11.403729 -3.372529 -3.598299 -8.784813 -7.122677 -5.918961 -5.309354 -42.254593 -87.401819 8.814997 -80.238644 0.000000 0.000000 0.000000 16.166863 9.619645 -1.020146 3.754307 14.047884 -10.338278 -3.136324 -3.430562 -13.354404 -6.845769 36.706297 41.554284 -72.899306 74.247353 61.027242 0.000000 0.000000 0.000000 
